<?xml version="1.0" encoding="UTF-8"?>
<svg xmlns="http://www.w3.org/2000/svg" xmlns:xlink="http://www.w3.org/1999/xlink" width="260px" height="27px" viewBox="0 0 261 27" version="1.1">
<g id="surface1">
<path style=" stroke:none;fill-rule:evenodd;fill:rgb(8.627451%,24.705882%,41.960784%);fill-opacity:1;" d="M 19.765625 5.128906 L 13.476562 5.128906 C 14.765625 6.992188 16.21875 8.804688 17.503906 10.566406 C 18.609375 9.230469 19.523438 7.882812 20.652344 6.523438 C 21.070312 5.894531 20.445312 5.113281 19.707031 5.128906 Z M 19.765625 5.128906 "/>
<path style=" stroke:none;fill-rule:evenodd;fill:rgb(6.27451%,45.098039%,65.882353%);fill-opacity:1;" d="M 21.011719 16.007812 L 13.476562 16.007812 C 15.484375 13.570312 18.878906 8.945312 20.808594 6.507812 C 20.914062 6.207031 20.875 5.875 20.703125 5.609375 C 20.535156 5.34375 20.253906 5.164062 19.941406 5.128906 C 21.148438 5.128906 21.550781 5.128906 21.957031 5.574219 C 23.152344 7.089844 24.273438 8.667969 25.4375 10.15625 C 25.777344 10.601562 25.621094 10.886719 25.273438 11.304688 L 22.253906 15.347656 C 21.921875 15.746094 21.453125 16.011719 20.941406 16.09375 Z M 21.011719 16.007812 "/>
<path style=" stroke:none;fill-rule:evenodd;fill:rgb(70.588235%,42.352941%,16.078431%);fill-opacity:1;" d="M 9.699219 21.503906 L 16.09375 21.503906 C 14.746094 19.621094 13.328125 17.949219 12.058594 16.070312 C 10.953125 17.429688 10.046875 18.777344 8.898438 20.109375 C 8.550781 20.710938 8.898438 21.382812 9.769531 21.476562 Z M 9.699219 21.503906 "/>
<path style=" stroke:none;fill-rule:evenodd;fill:rgb(96.470588%,80.392157%,8.627451%);fill-opacity:1;" d="M 8.492188 10.625 L 16.113281 10.625 C 14.09375 13.046875 10.710938 17.671875 8.777344 20.109375 C 8.457031 20.796875 8.917969 21.339844 9.578125 21.488281 C 8.394531 21.488281 7.96875 21.488281 7.570312 21.042969 C 6.332031 19.542969 5.21875 17.984375 4.019531 16.480469 C 3.652344 16.050781 3.820312 15.746094 4.160156 15.328125 L 7.203125 11.289062 C 7.527344 10.894531 7.988281 10.636719 8.492188 10.566406 Z M 8.492188 10.625 "/>
<path style=" stroke:none;fill-rule:nonzero;fill:rgb(8.627451%,24.705882%,41.960784%);fill-opacity:1;" d="M 46.1875 15.164062 L 46.1875 21.320312 L 47.929688 21.320312 L 47.929688 15.222656 C 48.144531 14.457031 48.796875 14.355469 49.597656 14.433594 C 49.9375 13.925781 50.304688 13.402344 50.625 12.898438 C 49.214844 12.578125 46.597656 12.515625 46.1875 15.164062 Z M 46.1875 15.164062 "/>
<path style=" stroke:none;fill-rule:nonzero;fill:rgb(8.627451%,24.705882%,41.960784%);fill-opacity:1;" d="M 40.769531 12.636719 C 38.367188 12.636719 36.417969 14.585938 36.417969 16.992188 C 36.445312 19.390625 38.40625 21.3125 40.800781 21.296875 C 43.199219 21.277344 45.128906 19.320312 45.117188 16.921875 C 45.109375 14.523438 43.164062 12.585938 40.769531 12.585938 Z M 40.769531 19.761719 C 39.660156 19.765625 38.65625 19.097656 38.230469 18.074219 C 37.804688 17.050781 38.035156 15.867188 38.820312 15.082031 C 39.601562 14.296875 40.78125 14.058594 41.804688 14.484375 C 42.832031 14.90625 43.5 15.910156 43.5 17.019531 C 43.5 18.53125 42.277344 19.757812 40.769531 19.761719 Z M 40.769531 19.761719 "/>
<path style=" stroke:none;fill-rule:nonzero;fill:rgb(8.627451%,24.705882%,41.960784%);fill-opacity:1;" d="M 71.773438 12.636719 C 69.371094 12.636719 67.425781 14.585938 67.425781 16.992188 C 67.453125 19.390625 69.414062 21.3125 71.808594 21.296875 C 74.203125 21.277344 76.132812 19.320312 76.125 16.921875 C 76.113281 14.523438 74.171875 12.585938 71.773438 12.585938 Z M 71.773438 19.761719 C 71.046875 19.773438 70.347656 19.488281 69.828125 18.980469 C 69.3125 18.46875 69.019531 17.773438 69.015625 17.042969 C 69.015625 15.53125 70.242188 14.304688 71.75 14.300781 C 73.261719 14.296875 74.492188 15.519531 74.5 17.035156 C 74.503906 18.546875 73.285156 19.777344 71.773438 19.789062 Z M 71.773438 19.761719 "/>
<path style=" stroke:none;fill-rule:nonzero;fill:rgb(8.627451%,24.705882%,41.960784%);fill-opacity:1;" d="M 32.84375 12.421875 C 33.488281 12.417969 34.121094 12.585938 34.679688 12.90625 L 35.105469 12.90625 L 36.113281 11.671875 C 35.167969 10.976562 34.015625 10.609375 32.84375 10.625 C 30.503906 10.640625 28.4375 12.15625 27.71875 14.382812 C 27 16.609375 27.789062 19.046875 29.675781 20.429688 C 31.5625 21.8125 34.125 21.828125 36.027344 20.46875 L 35.105469 19.257812 L 34.722656 19.257812 C 34.148438 19.589844 33.503906 19.769531 32.84375 19.789062 C 30.894531 19.691406 29.367188 18.085938 29.367188 16.132812 C 29.367188 14.183594 30.894531 12.574219 32.84375 12.480469 Z M 32.84375 12.421875 "/>
<path style=" stroke:none;fill-rule:nonzero;fill:rgb(8.627451%,24.705882%,41.960784%);fill-opacity:1;" d="M 64.738281 12.847656 L 66.492188 12.847656 L 66.492188 21.441406 L 64.738281 21.441406 Z M 64.738281 12.847656 "/>
<path style=" stroke:none;fill-rule:nonzero;fill:rgb(8.627451%,24.705882%,41.960784%);fill-opacity:1;" d="M 59.378906 12.636719 C 57.460938 12.648438 55.78125 13.914062 55.234375 15.75 C 54.6875 17.589844 55.40625 19.570312 57.003906 20.625 C 58.601562 21.683594 60.703125 21.570312 62.179688 20.347656 L 61.449219 19.316406 C 61.332031 19.238281 61.179688 19.238281 61.066406 19.316406 C 60.601562 19.625 60.054688 19.785156 59.5 19.78125 C 58.320312 19.789062 57.257812 19.078125 56.8125 17.984375 L 63.632812 17.984375 C 63.695312 17.679688 63.726562 17.367188 63.726562 17.054688 C 63.742188 15.886719 63.292969 14.765625 62.476562 13.933594 C 61.65625 13.105469 60.542969 12.636719 59.378906 12.636719 Z M 56.765625 16.296875 C 57.0625 15.09375 58.140625 14.25 59.378906 14.25 C 60.613281 14.25 61.691406 15.09375 61.988281 16.296875 Z M 56.765625 16.296875 "/>
<path style=" stroke:none;fill-rule:nonzero;fill:rgb(8.627451%,24.705882%,41.960784%);fill-opacity:1;" d="M 50.851562 15.164062 L 50.851562 21.320312 L 52.589844 21.320312 L 52.589844 15.222656 C 52.792969 14.457031 53.460938 14.355469 54.261719 14.433594 C 54.59375 13.925781 54.949219 13.402344 55.296875 12.898438 C 53.871094 12.578125 51.269531 12.515625 50.851562 15.164062 Z M 50.851562 15.164062 "/>
<path style=" stroke:none;fill-rule:nonzero;fill:rgb(8.627451%,24.705882%,41.960784%);fill-opacity:1;" d="M 80.257812 16.355469 C 78.585938 16.113281 78.101562 15.609375 78.683594 14.859375 L 78.683594 14.613281 C 79.308594 14.117188 80.222656 14.320312 81.222656 14.917969 L 82.355469 13.507812 C 81.300781 12.90625 80.074219 12.675781 78.875 12.847656 C 77.964844 12.933594 77.179688 13.519531 76.832031 14.363281 C 76.488281 15.210938 76.636719 16.175781 77.222656 16.878906 C 78.351562 18.230469 80.527344 17.445312 80.894531 18.898438 C 80.894531 19.910156 79.152344 20.371094 77.910156 19.179688 C 77.800781 19.089844 77.648438 19.089844 77.542969 19.179688 L 76.59375 20.40625 C 77.488281 21.195312 78.648438 21.613281 79.839844 21.566406 C 81.691406 21.460938 82.320312 20.554688 82.546875 18.953125 C 82.773438 17.351562 81.589844 16.617188 80.257812 16.355469 Z M 80.257812 16.355469 "/>
<path style=" stroke:none;fill-rule:nonzero;fill:rgb(0%,25.490196%,51.764706%);fill-opacity:1;" d="M 186.328125 5.140625 L 257.085938 5.140625 C 257.128906 5.140625 257.199219 5.140625 257.179688 5.199219 C 257.171875 5.21875 257.171875 5.242188 257.179688 5.261719 C 256.929688 6.609375 256.683594 7.960938 256.433594 9.3125 C 256.050781 11.355469 255.675781 13.414062 255.292969 15.460938 L 254.117188 21.84375 C 254.117188 21.941406 254.066406 21.964844 253.96875 21.964844 L 182.8125 21.964844 C 183.179688 20.222656 183.550781 18.480469 183.917969 16.6875 C 184.285156 14.894531 184.675781 13.082031 185.058594 11.289062 C 185.441406 9.492188 185.816406 7.671875 186.199219 5.871094 C 186.253906 5.628906 186.296875 5.386719 186.328125 5.140625 Z M 186.328125 5.140625 "/>
<path style=" stroke:none;fill-rule:nonzero;fill:rgb(99.607843%,87.058824%,1.568627%);fill-opacity:1;" d="M 211.898438 18.996094 C 211.902344 18.964844 211.917969 18.933594 211.941406 18.910156 L 218.839844 7.386719 C 218.867188 7.332031 218.925781 7.300781 218.988281 7.308594 L 222.277344 7.308594 C 222.363281 7.308594 222.378906 7.308594 222.398438 7.402344 C 222.554688 8.570312 222.71875 9.738281 222.875 10.886719 C 223.03125 12.035156 223.179688 13.074219 223.328125 14.171875 C 223.476562 15.269531 223.667969 16.558594 223.832031 17.757812 L 223.988281 18.917969 C 223.988281 18.988281 223.988281 18.996094 223.921875 18.996094 L 221.050781 18.996094 C 220.980469 18.996094 220.960938 18.996094 220.953125 18.910156 C 220.875 18.1875 220.789062 17.464844 220.71875 16.730469 C 220.71875 16.644531 220.71875 16.601562 220.578125 16.601562 L 216.5 16.601562 C 216.429688 16.59375 216.363281 16.632812 216.335938 16.695312 L 215.074219 18.910156 C 215.050781 18.957031 215.003906 18.988281 214.949219 18.988281 L 211.957031 18.988281 C 211.957031 18.988281 211.914062 19.023438 211.898438 18.996094 Z M 220.003906 10.355469 L 217.613281 14.519531 L 220.414062 14.519531 C 220.492188 14.519531 220.492188 14.476562 220.484375 14.421875 L 220.328125 13.238281 C 220.242188 12.507812 220.164062 11.777344 220.074219 11.042969 C 220.058594 10.808594 220.03125 10.625 220.003906 10.355469 Z M 220.003906 10.355469 "/>
<path style=" stroke:none;fill-rule:nonzero;fill:rgb(99.607843%,87.058824%,1.568627%);fill-opacity:1;" d="M 206.597656 7.308594 L 208.441406 7.308594 C 209.207031 7.300781 209.96875 7.394531 210.707031 7.585938 C 211.222656 7.71875 211.703125 7.980469 212.097656 8.34375 C 212.546875 8.777344 212.828125 9.359375 212.890625 9.980469 C 213.011719 10.882812 212.839844 11.800781 212.394531 12.59375 C 211.992188 13.257812 211.429688 13.808594 210.757812 14.195312 C 210.035156 14.609375 209.246094 14.890625 208.425781 15.023438 C 207.699219 15.148438 206.960938 15.203125 206.226562 15.191406 C 205.910156 15.191406 205.589844 15.191406 205.277344 15.191406 C 205.214844 15.191406 205.191406 15.191406 205.179688 15.269531 C 204.9375 16.339844 204.683594 17.410156 204.441406 18.480469 C 204.441406 18.621094 204.371094 18.761719 204.34375 18.898438 C 204.320312 19.039062 204.34375 19.003906 204.214844 19.003906 L 201.386719 19.003906 C 201.308594 19.003906 201.28125 19.003906 201.308594 18.910156 C 201.9375 16.183594 202.570312 13.457031 203.195312 10.730469 C 203.457031 9.617188 203.710938 8.507812 203.960938 7.394531 C 203.960938 7.308594 204.023438 7.296875 204.101562 7.296875 Z M 206.511719 12.996094 L 206.808594 12.996094 C 207.261719 13.003906 207.71875 12.945312 208.15625 12.820312 C 209.054688 12.609375 209.683594 11.800781 209.671875 10.878906 C 209.722656 10.335938 209.390625 9.832031 208.871094 9.667969 C 208.664062 9.59375 208.453125 9.542969 208.234375 9.519531 C 207.675781 9.46875 207.121094 9.519531 206.5625 9.519531 C 206.503906 9.519531 206.484375 9.519531 206.46875 9.597656 C 206.214844 10.714844 205.964844 11.828125 205.703125 12.933594 C 205.703125 13.011719 205.703125 13.03125 205.773438 13.019531 Z M 206.511719 12.996094 "/>
<path style=" stroke:none;fill-rule:nonzero;fill:rgb(99.607843%,87.058824%,1.568627%);fill-opacity:1;" d="M 235.820312 15.441406 C 235.71875 15.886719 235.613281 16.3125 235.5 16.773438 C 235.386719 17.238281 235.273438 17.6875 235.167969 18.140625 C 235.167969 18.195312 235.167969 18.238281 235.089844 18.265625 C 234.445312 18.546875 233.78125 18.789062 233.109375 18.996094 C 232.167969 19.230469 231.191406 19.300781 230.226562 19.203125 C 229.667969 19.167969 229.117188 19.042969 228.59375 18.839844 C 227.355469 18.398438 226.441406 17.339844 226.183594 16.050781 C 226.046875 15.425781 226.003906 14.785156 226.050781 14.144531 C 226.09375 13.359375 226.246094 12.585938 226.511719 11.84375 C 227.3125 9.492188 229.300781 7.746094 231.734375 7.253906 C 232.617188 7.066406 233.527344 7.027344 234.421875 7.140625 C 235.238281 7.214844 236.039062 7.40625 236.796875 7.714844 C 237.007812 7.804688 237.214844 7.90625 237.414062 8.023438 C 237.441406 8.03125 237.460938 8.046875 237.472656 8.074219 C 237.484375 8.097656 237.484375 8.128906 237.476562 8.152344 L 236.824219 10.765625 C 236.824219 10.835938 236.824219 10.851562 236.71875 10.859375 C 236.554688 10.878906 236.390625 10.8125 236.285156 10.6875 C 235.84375 10.179688 235.289062 9.789062 234.664062 9.546875 C 233.496094 9.082031 232.171875 9.234375 231.140625 9.957031 C 230.46875 10.445312 229.960938 11.128906 229.679688 11.914062 C 229.261719 12.941406 229.132812 14.066406 229.316406 15.164062 C 229.367188 15.71875 229.65625 16.226562 230.105469 16.558594 C 230.464844 16.800781 230.882812 16.941406 231.316406 16.964844 C 232.425781 17.054688 233.535156 16.773438 234.472656 16.175781 C 234.777344 15.992188 235.066406 15.789062 235.34375 15.574219 C 235.472656 15.457031 235.652344 15.410156 235.820312 15.441406 Z M 235.820312 15.441406 "/>
<path style=" stroke:none;fill-rule:nonzero;fill:rgb(0%,25.490196%,51.764706%);fill-opacity:1;" d="M 166.109375 22.007812 L 94.054688 22.007812 C 94.054688 22.007812 93.953125 22.0625 93.960938 21.964844 C 93.96875 21.871094 94.039062 21.636719 94.074219 21.46875 C 94.648438 18.726562 95.230469 15.972656 95.8125 13.230469 C 96.394531 10.488281 96.953125 7.8125 97.554688 5.105469 C 97.554688 5.007812 97.605469 4.972656 97.710938 4.972656 L 169.292969 4.972656 C 169.292969 5.234375 169.207031 5.476562 169.152344 5.722656 C 168.910156 7.0625 168.65625 8.394531 168.414062 9.738281 C 168.171875 11.078125 167.945312 12.261719 167.71875 13.527344 L 166.988281 17.4375 L 166.265625 21.078125 Z M 166.109375 22.007812 "/>
<path style=" stroke:none;fill-rule:nonzero;fill:rgb(99.607843%,87.058824%,1.568627%);fill-opacity:1;" d="M 137.070312 10.136719 C 136.839844 8.738281 135.824219 7.597656 134.457031 7.210938 C 133.757812 6.996094 133.03125 6.894531 132.300781 6.90625 L 126.027344 6.90625 C 125.855469 6.90625 125.855469 6.90625 125.820312 7.082031 L 124.566406 13.054688 C 124.078125 15.347656 123.601562 17.644531 123.113281 19.945312 C 123.113281 20.039062 123.113281 20.058594 123.210938 20.058594 L 128.925781 20.058594 C 129.507812 20.066406 130.089844 20.027344 130.664062 19.945312 C 131.257812 19.875 131.839844 19.738281 132.40625 19.542969 C 134.132812 18.882812 135.515625 17.550781 136.242188 15.851562 C 136.691406 14.816406 136.984375 13.722656 137.113281 12.601562 C 137.234375 11.785156 137.21875 10.953125 137.070312 10.136719 Z M 132.847656 13.238281 C 132.734375 13.929688 132.546875 14.605469 132.292969 15.257812 C 132.082031 15.773438 131.734375 16.222656 131.292969 16.558594 C 130.914062 16.816406 130.476562 16.96875 130.023438 17 C 129.621094 17.039062 129.222656 17.050781 128.820312 17.042969 L 128.074219 17.042969 C 127.996094 17.042969 127.96875 17.042969 127.984375 16.949219 C 128.203125 15.929688 128.410156 14.910156 128.621094 13.890625 L 129.429688 10.007812 C 129.429688 9.902344 129.480469 9.867188 129.59375 9.875 L 130.847656 9.875 C 131.199219 9.890625 131.546875 9.949219 131.882812 10.058594 C 132.523438 10.246094 132.960938 10.832031 132.960938 11.496094 C 133.011719 12.078125 132.972656 12.667969 132.847656 13.238281 Z M 132.847656 13.238281 "/>
<path style=" stroke:none;fill-rule:nonzero;fill:rgb(99.607843%,87.058824%,1.568627%);fill-opacity:1;" d="M 122.589844 11.800781 L 116.355469 11.800781 C 116.265625 11.800781 116.242188 11.800781 116.257812 11.6875 C 116.398438 11.078125 116.527344 10.460938 116.640625 9.851562 C 116.640625 9.71875 116.710938 9.703125 116.832031 9.703125 L 123.59375 9.703125 C 123.671875 9.703125 123.714844 9.703125 123.730469 9.605469 C 123.90625 8.734375 124.089844 7.863281 124.269531 7.039062 C 124.269531 6.878906 124.269531 6.90625 124.167969 6.90625 L 113.222656 6.90625 C 113.109375 6.90625 113.082031 6.90625 113.066406 7.039062 C 112.832031 8.136719 112.59375 9.230469 112.371094 10.328125 C 111.683594 13.523438 111.003906 16.714844 110.324219 19.910156 C 110.324219 20.007812 110.324219 20.03125 110.421875 20.03125 L 121.601562 20.03125 C 121.695312 20.03125 121.730469 20.03125 121.746094 19.917969 C 121.9375 19.003906 122.128906 18.097656 122.3125 17.191406 C 122.3125 17.035156 122.3125 17.035156 122.191406 17.035156 L 115.230469 17.035156 C 115.09375 17.035156 115.09375 17.035156 115.117188 16.90625 C 115.285156 16.140625 115.449219 15.371094 115.605469 14.605469 C 115.605469 14.492188 115.65625 14.457031 115.78125 14.457031 L 122.035156 14.457031 C 122.121094 14.457031 122.15625 14.457031 122.175781 14.355469 C 122.269531 13.867188 122.382812 13.378906 122.488281 12.882812 C 122.558594 12.542969 122.625 12.203125 122.703125 11.863281 C 122.703125 11.792969 122.703125 11.757812 122.617188 11.765625 Z M 122.589844 11.800781 "/>
<path style=" stroke:none;fill-rule:nonzero;fill:rgb(99.607843%,87.058824%,1.568627%);fill-opacity:1;" d="M 144.105469 17.097656 L 141.730469 17.097656 C 141.644531 17.097656 141.617188 17.097656 141.636719 16.992188 C 141.808594 16.199219 141.976562 15.417969 142.140625 14.625 C 142.140625 14.519531 142.203125 14.511719 142.289062 14.511719 L 148.550781 14.511719 C 148.648438 14.511719 148.683594 14.511719 148.699219 14.398438 L 149.222656 11.941406 C 149.222656 11.820312 149.222656 11.820312 149.117188 11.820312 C 147.019531 11.820312 144.933594 11.820312 142.84375 11.820312 C 142.765625 11.820312 142.730469 11.820312 142.75 11.714844 L 143.140625 9.832031 C 143.140625 9.746094 143.191406 9.71875 143.28125 9.71875 L 150.101562 9.71875 C 150.152344 9.71875 150.195312 9.71875 150.214844 9.648438 C 150.398438 8.78125 150.589844 7.910156 150.78125 7.039062 C 150.78125 6.949219 150.78125 6.949219 150.691406 6.949219 L 139.667969 6.949219 C 139.601562 6.949219 139.574219 6.949219 139.566406 7.039062 L 139.042969 9.503906 C 138.308594 12.984375 137.5625 16.46875 136.816406 19.953125 C 136.816406 20.074219 136.816406 20.074219 136.921875 20.074219 L 148.136719 20.074219 C 148.160156 20.082031 148.183594 20.074219 148.203125 20.058594 C 148.21875 20.042969 148.230469 20.023438 148.230469 19.996094 C 148.421875 19.066406 148.621094 18.132812 148.8125 17.210938 C 148.8125 17.089844 148.8125 17.089844 148.710938 17.089844 Z M 144.105469 17.097656 "/>
<path style=" stroke:none;fill-rule:nonzero;fill:rgb(99.607843%,87.058824%,1.568627%);fill-opacity:1;" d="M 108.8125 12.5 C 108.1875 12.117188 107.515625 11.824219 106.808594 11.628906 C 106.042969 11.402344 105.253906 11.246094 104.476562 11.042969 C 104.230469 10.984375 103.992188 10.902344 103.765625 10.792969 C 103.476562 10.65625 103.328125 10.332031 103.417969 10.023438 C 103.503906 9.691406 103.738281 9.417969 104.050781 9.285156 C 104.625 9.023438 105.277344 8.980469 105.878906 9.171875 C 106.292969 9.285156 106.609375 9.621094 106.695312 10.042969 C 106.746094 10.234375 106.769531 10.429688 106.773438 10.625 C 106.773438 10.792969 106.773438 10.792969 106.941406 10.78125 L 108.984375 10.667969 L 110.671875 10.582031 C 110.734375 10.582031 110.757812 10.582031 110.769531 10.488281 C 110.800781 10.089844 110.78125 9.691406 110.714844 9.300781 C 110.613281 8.578125 110.214844 7.929688 109.621094 7.507812 C 109.210938 7.230469 108.753906 7.03125 108.273438 6.914062 C 107.464844 6.71875 106.632812 6.636719 105.800781 6.664062 C 105.273438 6.667969 104.742188 6.699219 104.21875 6.757812 C 103.296875 6.867188 102.40625 7.160156 101.605469 7.628906 C 100.441406 8.253906 99.613281 9.363281 99.34375 10.660156 C 99.222656 11.207031 99.277344 11.777344 99.5 12.289062 C 99.777344 12.878906 100.238281 13.363281 100.816406 13.664062 C 101.503906 14.050781 102.242188 14.34375 103.007812 14.535156 C 103.554688 14.683594 104.113281 14.789062 104.652344 14.964844 C 104.9375 15.046875 105.210938 15.167969 105.460938 15.328125 C 105.808594 15.578125 105.960938 16.019531 105.835938 16.425781 C 105.683594 16.9375 105.300781 17.34375 104.800781 17.523438 C 104.199219 17.773438 103.527344 17.804688 102.902344 17.609375 C 102.351562 17.46875 101.9375 17.007812 101.851562 16.445312 C 101.796875 16.171875 101.78125 15.894531 101.808594 15.617188 C 101.808594 15.53125 101.808594 15.496094 101.695312 15.503906 L 99.839844 15.617188 L 97.847656 15.738281 C 97.78125 15.738281 97.761719 15.738281 97.761719 15.824219 C 97.761719 15.914062 97.761719 16.035156 97.761719 16.148438 C 97.710938 16.714844 97.78125 17.285156 97.96875 17.820312 C 98.265625 18.773438 98.984375 19.539062 99.917969 19.894531 C 100.527344 20.082031 101.15625 20.1875 101.789062 20.207031 C 102.925781 20.335938 104.074219 20.304688 105.199219 20.121094 C 106.226562 19.960938 107.203125 19.558594 108.046875 18.953125 C 109.191406 18.164062 109.972656 16.941406 110.203125 15.5625 C 110.3125 14.9375 110.238281 14.292969 109.992188 13.710938 C 109.734375 13.191406 109.320312 12.769531 108.8125 12.5 Z M 108.8125 12.5 "/>
<path style=" stroke:none;fill-rule:nonzero;fill:rgb(99.607843%,87.058824%,1.568627%);fill-opacity:1;" d="M 165.550781 7.28125 L 165.855469 6.933594 L 161.386719 6.933594 C 161.324219 6.929688 161.265625 6.957031 161.238281 7.011719 L 158.210938 10.871094 C 158.210938 10.871094 158.210938 10.949219 158.113281 10.957031 L 158.113281 10.878906 C 157.617188 9.597656 157.128906 8.308594 156.636719 7.027344 C 156.636719 6.960938 156.582031 6.933594 156.503906 6.933594 L 152.074219 6.933594 C 152.042969 6.921875 152.003906 6.921875 151.972656 6.933594 C 151.988281 6.976562 152.007812 7.023438 152.03125 7.0625 L 154.859375 13.109375 C 154.898438 13.160156 154.898438 13.230469 154.859375 13.28125 L 148.882812 19.972656 C 148.882812 19.972656 148.882812 19.972656 148.882812 20.050781 L 153.398438 20.050781 C 153.480469 20.054688 153.558594 20.015625 153.605469 19.953125 L 156.21875 16.828125 L 157.085938 15.835938 C 157.097656 15.867188 157.113281 15.898438 157.128906 15.929688 C 157.695312 17.28125 158.269531 18.621094 158.871094 19.972656 C 158.886719 20.039062 158.949219 20.082031 159.019531 20.074219 L 163.492188 20.074219 C 163.613281 20.074219 163.613281 20.074219 163.558594 19.972656 L 160.453125 13.394531 C 160.410156 13.339844 160.410156 13.261719 160.453125 13.203125 Z M 165.550781 7.28125 "/>
</g>
</svg>
