<svg xmlns="http://www.w3.org/2000/svg" xmlns:xlink="http://www.w3.org/1999/xlink" xmlns:xodm="http://www.corel.com/coreldraw/odm/2003" xml:space="preserve" width="119" height="75" version="1.1" style="shape-rendering:geometricPrecision; text-rendering:geometricPrecision; image-rendering:optimizeQuality; fill-rule:evenodd; clip-rule:evenodd" viewBox="0 0 20.88 13.19">
 <defs>
  <style type="text/css">
   <![CDATA[
    .str0 {stroke:#939598;stroke-width:0.2;stroke-linecap:round;stroke-linejoin:round;stroke-miterlimit:22.9256}
    .fil2 {fill:none;fill-rule:nonzero}
    .fil3 {fill:#32BCAD;fill-rule:nonzero}
    .fil4 {fill:#939598;fill-rule:nonzero}
    .fil1 {fill:white;fill-rule:nonzero}
    .fil0 {fill:black;fill-rule:nonzero;fill-opacity:0.070588}
   ]]>
  </style>
 </defs>
 <g id="Camada_x0020_1">
  <metadata id="CorelCorpID_0Corel-Layer"/>
  <g id="_2375286078160">
   <path class="fil0" d="M19.23 0l-17.58 0c-0.94,0 -1.65,0.71 -1.65,1.65l0 9.89c0,0.93 0.77,1.65 1.65,1.65l17.58 0c0.93,0 1.65,-0.72 1.65,-1.65l0 -9.89c0,-0.94 -0.77,-1.65 -1.65,-1.65l0 0z"/>
   <path class="fil1" d="M19.23 0.55c0.6,0 1.1,0.49 1.1,1.1l0 9.89c0,0.6 -0.5,1.1 -1.1,1.1l-17.58 0c-0.61,0 -1.1,-0.5 -1.1,-1.1l0 -9.89c0,-0.61 0.49,-1.1 1.1,-1.1l17.58 0z"/>
  </g>
  <g id="_2375286084736">
   <path class="fil2 str0" d="M9.08 8.89l0 -3.18c0,-0.58 0.47,-1.06 1.06,-1.06l0.94 0c0.58,0 1.05,0.48 1.05,1.06l0 0.68c0,0.58 -0.47,1.05 -1.06,1.05l-1.32 0"/>
   <path class="fil2 str0" d="M12.39 4.65l0.41 0c0.24,0 0.43,0.2 0.43,0.44l0 2.37"/>
   <path class="fil3" d="M13.15 4.28l-0.19 -0.18c-0.04,-0.05 -0.04,-0.12 0,-0.17l0.19 -0.18c0.04,-0.05 0.12,-0.05 0.16,0l0.19 0.18c0.04,0.05 0.04,0.12 0,0.17l-0.19 0.18c-0.04,0.05 -0.12,0.05 -0.16,0z"/>
   <path class="fil2 str0" d="M14.02 4.65l0.4 0c0.21,0 0.41,0.08 0.55,0.23l0.95 0.94c0.12,0.12 0.32,0.12 0.44,0l0.94 -0.94c0.15,-0.15 0.35,-0.23 0.55,-0.23l0.33 0"/>
   <path class="fil2 str0" d="M14.02 7.44l0.4 0c0.21,0 0.41,-0.08 0.55,-0.23l0.95 -0.95c0.12,-0.12 0.32,-0.12 0.44,0l0.94 0.95c0.15,0.14 0.35,0.22 0.55,0.22l0.33 0"/>
   <path class="fil3" d="M6.67 8.04c-0.2,0 -0.39,-0.08 -0.53,-0.22l-0.78 -0.78c-0.05,-0.05 -0.15,-0.05 -0.2,0l-0.78 0.78c-0.14,0.15 -0.33,0.22 -0.54,0.22l-0.15 0 0.98 0.99c0.31,0.3 0.81,0.3 1.11,0l0.99 -0.99 -0.1 0z"/>
   <path class="fil3" d="M3.84 5.3c0.21,0 0.4,0.08 0.54,0.22l0.78 0.78c0.05,0.06 0.15,0.06 0.2,0l0.78 -0.77c0.14,-0.15 0.33,-0.23 0.53,-0.23l0.1 0 -0.99 -0.98c-0.3,-0.31 -0.8,-0.31 -1.11,0l-0.98 0.98 0.15 0z"/>
   <path class="fil3" d="M7.58 6.12l-0.6 -0.6c-0.01,0.01 -0.02,0.01 -0.04,0.01l-0.27 0c-0.14,0 -0.27,0.06 -0.37,0.16l-0.78 0.77c-0.07,0.07 -0.17,0.11 -0.26,0.11 -0.1,0 -0.19,-0.04 -0.26,-0.11l-0.78 -0.77c-0.1,-0.1 -0.24,-0.16 -0.38,-0.16l-0.33 0c-0.01,0 -0.03,0 -0.04,-0.01l-0.59 0.6c-0.31,0.3 -0.31,0.8 0,1.11l0.59 0.59c0.01,0 0.03,0 0.04,0l0.33 0c0.14,0 0.28,-0.06 0.38,-0.16l0.78 -0.78c0.14,-0.14 0.38,-0.14 0.52,0l0.78 0.78c0.1,0.1 0.23,0.15 0.37,0.15l0.27 0c0.02,0 0.03,0.01 0.04,0.01l0.6 -0.59c0.31,-0.31 0.31,-0.81 0,-1.11z"/>
   <path class="fil4" d="M9.89 8.62c-0.05,0 -0.1,0.01 -0.15,0.02l0 0.19c0.04,0.02 0.08,0.02 0.11,0.02 0.1,0 0.15,-0.03 0.15,-0.12 0,-0.08 -0.04,-0.11 -0.11,-0.11l0 0zm-0.18 0.36l0 -0.39 0.02 0 0.01 0.02c0.04,-0.01 0.1,-0.02 0.15,-0.02 0.03,0 0.07,0 0.1,0.03 0.03,0.02 0.04,0.07 0.04,0.11 0,0.05 -0.01,0.1 -0.06,0.13 -0.03,0.02 -0.07,0.02 -0.11,0.02 -0.04,0 -0.08,0 -0.12,-0.02l0 0.12 -0.03 0z"/>
   <path class="fil4" d="M10.28 8.62c-0.1,0 -0.14,0.03 -0.14,0.11 0,0.09 0.04,0.12 0.14,0.12 0.09,0 0.14,-0.03 0.14,-0.11 0,-0.09 -0.05,-0.12 -0.14,-0.12l0 0zm0.12 0.23c-0.03,0.03 -0.08,0.03 -0.12,0.03 -0.05,0 -0.1,0 -0.13,-0.03 -0.04,-0.02 -0.05,-0.06 -0.05,-0.12 0,-0.05 0.01,-0.09 0.05,-0.11 0.03,-0.03 0.08,-0.03 0.13,-0.03 0.05,0 0.09,0 0.12,0.03 0.04,0.02 0.05,0.06 0.05,0.11 0,0.06 -0.01,0.1 -0.05,0.12l0 0zm0 0l0 0z"/>
   <polygon class="fil4" points="10.86,8.87 10.75,8.64 10.75,8.64 10.64,8.87 10.61,8.87 10.5,8.59 10.53,8.59 10.63,8.83 10.63,8.83 10.74,8.59 10.77,8.59 10.87,8.83 10.88,8.83 10.97,8.59 11,8.59 10.89,8.87 "/>
   <path class="fil4" d="M11.21 8.62c-0.09,0 -0.12,0.04 -0.12,0.09l0.25 0c0,-0.06 -0.04,-0.09 -0.13,-0.09l0 0zm0 0.26c-0.05,0 -0.09,-0.01 -0.11,-0.03 -0.04,-0.03 -0.05,-0.07 -0.05,-0.12 0,-0.04 0.02,-0.09 0.06,-0.12 0.03,-0.02 0.06,-0.02 0.1,-0.02 0.04,0 0.08,0 0.12,0.02 0.04,0.03 0.04,0.08 0.04,0.13l-0.28 0c0,0.06 0.02,0.11 0.13,0.11 0.05,0 0.1,-0.01 0.14,-0.01l0 0.03c-0.05,0 -0.1,0.01 -0.15,0.01z"/>
   <path class="fil4" d="M11.47 8.87l0 -0.28 0.03 0 0 0.02c0.06,-0.01 0.09,-0.02 0.14,-0.02l0 0 0 0.03 -0.01 0c-0.04,0 -0.07,0 -0.13,0.02l0 0.23 -0.03 0z"/>
   <path class="fil4" d="M11.83 8.62c-0.09,0 -0.12,0.04 -0.12,0.09l0.25 0c-0.01,-0.06 -0.04,-0.09 -0.13,-0.09l0 0zm0 0.26c-0.05,0 -0.09,-0.01 -0.12,-0.03 -0.03,-0.03 -0.04,-0.07 -0.04,-0.12 0,-0.04 0.01,-0.09 0.05,-0.12 0.03,-0.02 0.07,-0.02 0.11,-0.02 0.04,0 0.08,0 0.11,0.02 0.04,0.03 0.05,0.08 0.05,0.13l-0.29 0c0.01,0.06 0.02,0.11 0.13,0.11 0.05,0 0.1,-0.01 0.15,-0.01l0 0.03c-0.05,0 -0.1,0.01 -0.15,0.01z"/>
   <path class="fil4" d="M12.35 8.64c-0.03,-0.02 -0.07,-0.02 -0.11,-0.02 -0.1,0 -0.15,0.03 -0.15,0.11 0,0.09 0.04,0.12 0.12,0.12 0.04,0 0.09,-0.01 0.14,-0.02l0 -0.19zm0.01 0.23l-0.01 -0.01c-0.04,0.01 -0.1,0.02 -0.15,0.02 -0.03,0 -0.07,0 -0.1,-0.03 -0.03,-0.02 -0.04,-0.07 -0.04,-0.12 0,-0.05 0.02,-0.09 0.06,-0.12 0.03,-0.02 0.08,-0.02 0.11,-0.02 0.04,0 0.08,0 0.12,0.01l0 -0.12 0.03 0 0 0.39 -0.02 0z"/>
   <path class="fil4" d="M12.86 8.62c-0.04,0 -0.09,0.01 -0.14,0.02l0 0.19c0.03,0.02 0.07,0.02 0.11,0.02 0.1,0 0.14,-0.03 0.14,-0.12 0,-0.08 -0.03,-0.11 -0.11,-0.11l0 0zm0.09 0.24c-0.03,0.02 -0.08,0.02 -0.12,0.02 -0.04,0 -0.08,0 -0.12,-0.02l0 0.01 -0.02 0 0 -0.39 0.03 0 0 0.13c0.04,-0.01 0.1,-0.02 0.15,-0.02 0.03,0 0.07,0 0.1,0.03 0.03,0.02 0.04,0.07 0.04,0.11 0,0.05 -0.02,0.1 -0.06,0.13z"/>
   <path class="fil4" d="M13.05 8.98l0 -0.03c0.02,0 0.03,0 0.04,0 0.05,0 0.07,-0.01 0.09,-0.05l0.01 -0.03 -0.14 -0.28 0.03 0 0.13 0.25 0 0 0.12 -0.25 0.04 0 -0.16 0.32c-0.03,0.06 -0.06,0.08 -0.12,0.08 -0.01,0 -0.02,-0.01 -0.04,-0.01z"/>
   <path class="fil4" d="M13.82 8.71l-0.11 0 0 0.1 0.11 0c0.07,0 0.1,-0.01 0.1,-0.05 0,-0.04 -0.04,-0.05 -0.1,-0.05l0 0zm-0.02 -0.15l-0.09 0 0 0.1 0.09 0c0.07,0 0.1,-0.01 0.1,-0.06 0,-0.04 -0.03,-0.04 -0.1,-0.04l0 0zm0.17 0.29c-0.04,0.02 -0.09,0.02 -0.18,0.02l-0.16 0 0 -0.38 0.16 0c0.07,0 0.12,0.01 0.16,0.03 0.03,0.02 0.04,0.04 0.04,0.07 0,0.04 -0.02,0.07 -0.06,0.09l0 0c0.05,0.01 0.08,0.04 0.08,0.09 0,0.04 -0.01,0.06 -0.04,0.08z"/>
   <path class="fil4" d="M14.34 8.76c-0.03,-0.01 -0.07,-0.01 -0.1,-0.01 -0.06,0 -0.08,0.01 -0.08,0.04 0,0.02 0.02,0.04 0.06,0.04 0.04,0 0.08,-0.01 0.12,-0.02l0 -0.05zm0.02 0.11l0 -0.01c-0.05,0.01 -0.11,0.02 -0.16,0.02 -0.03,0 -0.06,0 -0.08,-0.02 -0.02,-0.01 -0.03,-0.04 -0.03,-0.07 0,-0.03 0.01,-0.06 0.04,-0.07 0.03,-0.02 0.07,-0.02 0.11,-0.02 0.03,0 0.07,0 0.1,0.01l0 -0.01c0,-0.04 -0.03,-0.06 -0.11,-0.06 -0.03,0 -0.06,0.01 -0.1,0.01l0 -0.06c0.04,0 0.08,0 0.12,0 0.05,0 0.1,0 0.13,0.02 0.03,0.03 0.04,0.06 0.04,0.1l0 0.16 -0.06 0z"/>
   <path class="fil4" d="M14.78 8.87l0 -0.15c0,-0.05 -0.02,-0.07 -0.07,-0.07 -0.03,0 -0.08,0.01 -0.11,0.02l0 0.2 -0.08 0 0 -0.28 0.06 0 0.01 0.02c0.05,-0.01 0.1,-0.02 0.15,-0.02 0.03,0 0.07,0 0.09,0.03 0.02,0.02 0.03,0.04 0.03,0.08l0 0.17 -0.08 0z"/>
   <path class="fil4" d="M15.08 8.88c-0.03,0 -0.07,0 -0.1,-0.03 -0.03,-0.02 -0.04,-0.07 -0.04,-0.12 0,-0.04 0.01,-0.09 0.05,-0.12 0.04,-0.02 0.08,-0.02 0.13,-0.02 0.03,0 0.06,0 0.09,0l0 0.06c-0.02,0 -0.06,0 -0.09,0 -0.07,0 -0.1,0.02 -0.1,0.08 0,0.07 0.02,0.09 0.08,0.09 0.04,0 0.08,-0.01 0.12,-0.01l0 0.05c-0.04,0.01 -0.09,0.02 -0.14,0.02z"/>
   <path class="fil4" d="M15.45 8.65c-0.07,0 -0.11,0.02 -0.11,0.08 0,0.07 0.04,0.09 0.11,0.09 0.08,0 0.11,-0.02 0.11,-0.08 0,-0.07 -0.03,-0.09 -0.11,-0.09l0 0zm0.14 0.2c-0.04,0.03 -0.08,0.03 -0.14,0.03 -0.05,0 -0.1,0 -0.13,-0.03 -0.04,-0.02 -0.06,-0.06 -0.06,-0.12 0,-0.05 0.02,-0.09 0.06,-0.11 0.03,-0.03 0.08,-0.03 0.13,-0.03 0.06,0 0.1,0 0.14,0.03 0.03,0.02 0.05,0.06 0.05,0.11 0,0.05 -0.02,0.1 -0.05,0.12l0 0zm0 0l0 0z"/>
   <path class="fil4" d="M16.09 8.88c-0.05,0 -0.1,-0.01 -0.14,-0.04 -0.04,-0.03 -0.06,-0.09 -0.06,-0.16 0,-0.05 0.02,-0.12 0.08,-0.16 0.05,-0.03 0.1,-0.03 0.16,-0.03 0.04,0 0.09,0 0.13,0l0 0.07c-0.04,0 -0.09,0 -0.12,0 -0.11,0 -0.16,0.04 -0.16,0.12 0,0.09 0.04,0.13 0.12,0.13 0.06,0 0.11,-0.01 0.17,-0.02l0 0.07c-0.06,0.01 -0.12,0.02 -0.18,0.02z"/>
   <path class="fil4" d="M16.5 8.64c-0.06,0 -0.09,0.02 -0.09,0.06l0.19 0c-0.01,-0.04 -0.03,-0.06 -0.1,-0.06l0 0zm-0.01 0.24c-0.04,0 -0.09,0 -0.12,-0.03 -0.03,-0.03 -0.04,-0.07 -0.04,-0.12 0,-0.04 0.01,-0.09 0.05,-0.11 0.03,-0.03 0.08,-0.03 0.12,-0.03 0.04,0 0.09,0 0.12,0.02 0.05,0.04 0.05,0.09 0.05,0.14l-0.26 0c0,0.05 0.02,0.07 0.1,0.07 0.05,0 0.1,0 0.15,-0.01l0 0.05c-0.05,0.01 -0.11,0.02 -0.17,0.02z"/>
   <path class="fil4" d="M17.02 8.87l0 -0.15c0,-0.05 -0.02,-0.07 -0.07,-0.07 -0.04,0 -0.08,0.01 -0.12,0.02l0 0.2 -0.07 0 0 -0.28 0.06 0 0 0.02c0.05,-0.01 0.11,-0.02 0.15,-0.02 0.04,0 0.07,0 0.1,0.03 0.02,0.02 0.03,0.04 0.03,0.08l0 0.17 -0.08 0z"/>
   <path class="fil4" d="M17.32 8.88c-0.04,0 -0.07,-0.01 -0.09,-0.04 -0.01,-0.02 -0.02,-0.04 -0.02,-0.08l0 -0.11 -0.06 0 0 -0.06 0.06 0 0.01 -0.08 0.07 0 0 0.08 0.11 0 0 0.06 -0.11 0 0 0.09c0,0.02 0,0.04 0.01,0.06 0,0.01 0.02,0.02 0.05,0.02 0.02,0 0.04,0 0.05,0l0 0.05c-0.02,0.01 -0.05,0.01 -0.08,0.01z"/>
   <path class="fil4" d="M17.48 8.87l0 -0.28 0.06 0 0 0.02c0.05,-0.01 0.09,-0.02 0.14,-0.02 0,0 0.01,0 0.01,0l0 0.06c-0.01,0 -0.02,0 -0.03,0 -0.03,0 -0.06,0.01 -0.11,0.02l0 0.2 -0.07 0z"/>
   <path class="fil4" d="M17.98 8.76c-0.04,-0.01 -0.07,-0.01 -0.11,-0.01 -0.05,0 -0.07,0.01 -0.07,0.04 0,0.02 0.01,0.04 0.06,0.04 0.03,0 0.08,-0.01 0.12,-0.02l0 -0.05zm0.01 0.11l0 -0.01c-0.05,0.01 -0.1,0.02 -0.15,0.02 -0.03,0 -0.06,0 -0.09,-0.02 -0.02,-0.01 -0.03,-0.04 -0.03,-0.07 0,-0.03 0.02,-0.06 0.05,-0.07 0.03,-0.02 0.07,-0.02 0.1,-0.02 0.03,0 0.07,0 0.11,0.01l0 -0.01c0,-0.04 -0.03,-0.06 -0.11,-0.06 -0.03,0 -0.07,0.01 -0.11,0.01l0 -0.06c0.04,0 0.09,0 0.12,0 0.05,0 0.1,0 0.14,0.02 0.03,0.03 0.03,0.06 0.03,0.1l0 0.16 -0.06 0z"/>
   <polygon class="fil4" points="18.15,8.87 18.23,8.87 18.23,8.48 18.15,8.48 "/>
  </g>
 </g>
</svg>