<svg xmlns="http://www.w3.org/2000/svg" width="110" height="35" viewBox="0 0 111 35"><defs><clipPath id="a"><path d="M0 4h25v3H0Zm0 0"/></clipPath><clipPath id="b"><path d="M12.8 3.352C7.34 3.352 2.544 5.632.68 6.3V9.52c0 8.984 0 15.156 5.195 20.25A65.677 65.677 0 0 0 12.668 35a66.145 66.145 0 0 0 6.797-5.23c5.195-5.23 5.195-10.594 5.195-19.043V6.3c-2.398-.668-6.664-2.95-11.86-2.95Zm0 0"/></clipPath><linearGradient id="c" gradientUnits="userSpaceOnUse" x1="189.56" y1="174.3" x2="189.56" y2="174.25" gradientTransform="matrix(437.99576 0 0 -36.26054 -83014.526 6324.822)"><stop offset="0" style="stop-color:#263238;stop-opacity:.34902"/><stop offset=".42" style="stop-color:#263238;stop-opacity:.14902"/><stop offset=".89" style="stop-color:#263238;stop-opacity:.0196078"/><stop offset="1" style="stop-color:#263238;stop-opacity:0"/></linearGradient></defs><path style="stroke:none;fill-rule:nonzero;fill:#d62d20;fill-opacity:1" d="M49.57 10.727c0 2-1.61 3.62-3.597 3.62-1.985 0-3.594-1.62-3.594-3.62s1.61-3.622 3.594-3.622a3.594 3.594 0 0 1 3.597 3.622Zm-1.597 0a2.007 2.007 0 0 0-2.133-1.875 2.011 2.011 0 0 0-1.863 2.144 2.032 2.032 0 0 0 1.996 1.879 2.004 2.004 0 0 0 2-2.148Zm0 0"/><path style="stroke:none;fill-rule:nonzero;fill:#ffa700;fill-opacity:1" d="M57.297 10.727c0 2-1.61 3.62-3.594 3.62-1.988 0-3.598-1.62-3.598-3.62s1.61-3.622 3.598-3.622a3.592 3.592 0 0 1 3.594 3.622Zm-1.598 0a2.007 2.007 0 0 0-2.133-1.875 2.011 2.011 0 0 0-1.863 2.144 2.033 2.033 0 0 0 2 1.879 2.087 2.087 0 0 0 1.996-2.148Zm0 0"/><path style="stroke:none;fill-rule:nonzero;fill:#0057e7;fill-opacity:1" d="M64.625 7.375v6.438c0 2.683-1.598 3.753-3.328 3.753a3.464 3.464 0 0 1-3.2-2.144l1.333-.535c.27.746.945 1.27 1.73 1.34 1.2 0 1.867-.672 1.867-2.145v-.539a2.641 2.641 0 0 1-1.867.805c-1.984 0-3.594-1.621-3.594-3.621s1.61-3.622 3.594-3.622a2.44 2.44 0 0 1 1.867.805v-.535Zm-1.332 3.352a1.891 1.891 0 0 0-.453-1.493 1.889 1.889 0 0 0-1.41-.652h-.133c-.57.063-1.09.355-1.442.813a2.139 2.139 0 0 0-.425 1.601 2.01 2.01 0 0 0 1.867 1.879 1.904 1.904 0 0 0 1.488-.61 1.94 1.94 0 0 0 .508-1.538Zm0 0"/><path style="stroke:none;fill-rule:nonzero;fill:#008744;fill-opacity:1" d="M67.156 3.621v10.461h-1.465V3.622Zm0 0"/><path style="stroke:none;fill-rule:nonzero;fill:#d62d20;fill-opacity:1" d="m73.02 11.934 1.199.804a3.546 3.546 0 0 1-3.95 1.477 3.575 3.575 0 0 1-2.578-3.352v-.136a3.423 3.423 0 0 1 3.196-3.622h.133a3.285 3.285 0 0 1 3.066 2.282l.133.402-4.797 2.012a1.783 1.783 0 0 0 1.73 1.074c.735 0 1.426-.348 1.868-.941Zm-3.73-1.34 3.194-1.34a1.456 1.456 0 0 0-1.332-.805 2.164 2.164 0 0 0-1.863 2.145Zm0 0"/><path style="stroke:none;fill-rule:nonzero;fill:#0057e7;fill-opacity:1" d="M36.648 9.79V8.312h5.063c0 .269.133.671.133.94.097 2.7-1.98 4.974-4.66 5.095h-.403c-3.035-.004-5.515-2.442-5.593-5.496.003-3.059 2.425-5.555 5.46-5.633 1.426 0 2.801.523 3.864 1.476l-1.067 1.07a3.972 3.972 0 0 0-2.797-1.07c-2.207 0-3.996 1.801-3.996 4.02 0 2.223 1.79 4.023 3.996 4.023a4.269 4.269 0 0 0 2.797-1.07c.504-.496.79-1.172.801-1.879Zm0 0"/><path style="stroke:none;fill-rule:nonzero;fill:#545454;fill-opacity:1" d="M34.918 27.758c-1 .086-1.996-.2-2.797-.805a2.69 2.69 0 0 1-.934-2.144h1.2c.011.593.308 1.144.797 1.476.574.317 1.21.5 1.867.535a3.56 3.56 0 0 0 1.597-.402c.387-.223.637-.625.668-1.074 0-.457-.261-.871-.668-1.07a12.752 12.752 0 0 0-2.132-.672 4.812 4.812 0 0 1-2.262-.938 2.244 2.244 0 0 1-.668-1.61c0-.738.348-1.433.934-1.878a2.88 2.88 0 0 1 2.265-.672c.844 0 1.676.23 2.399.672.613.48.964 1.23.93 2.012h-1.2c-.133-1.075-.797-1.61-2.262-1.61a3.576 3.576 0 0 0-1.601.402c-.344.184-.551.547-.531.938a.805.805 0 0 0 .398.805 7.473 7.473 0 0 0 1.598.539c.644.097 1.27.277 1.867.535.472.137.89.418 1.199.805.367.398.563.93.531 1.476a2.424 2.424 0 0 1-.93 2.012 3.817 3.817 0 0 1-2.265.668Zm8.926-1.875v-1.477h-.801c-1.73 0-2.531.535-2.531 1.34.02.313.164.602.402.805.664.36 1.465.36 2.129 0 .324-.145.598-.38.8-.668Zm0 1.07a3.608 3.608 0 0 1-2.266.805 2.325 2.325 0 0 1-1.598-.535 1.656 1.656 0 0 1-.667-1.34c0-1.477 1.332-2.281 3.863-2.281h.535a3.032 3.032 0 0 0-.133-1.075c0-.265-.27-.402-.402-.535a2.52 2.52 0 0 0-1.067-.27c-1.062 0-1.597.403-1.597 1.075h-1.2c.133-1.34 1.067-2.012 2.797-2.012a3.75 3.75 0 0 1 2 .535c.547.516.797 1.274.668 2.012v4.293h-1.199Zm4.261-5.094v5.633h-1.199V21.86h-.933v-.941h.933v-.535c0-1.34.535-2.012 1.867-2.012.274-.02.547.027.797.133v1.074h-.664a1.018 1.018 0 0 0-.668.27.897.897 0 0 0-.133.804v.535h1.2v.938Zm4.93 5.899a3.01 3.01 0 0 1-2.344-1.02 3.046 3.046 0 0 1-.718-2.465 4.142 4.142 0 0 1 .797-2.55 2.663 2.663 0 0 1 2.132-.938 3.112 3.112 0 0 1 2.266.938c.598.707.883 1.625.797 2.55v.266h-4.93c.024.64.258 1.258.668 1.746.344.367.832.563 1.332.535a2.477 2.477 0 0 0 1.067-.27c.324-.198.527-.554.53-.937h1.2a2.051 2.051 0 0 1-.93 1.61c-.574.316-1.215.5-1.867.535Zm1.598-4.024a1.652 1.652 0 0 0-.664-1.34 1.688 1.688 0 0 0-2.399 0 3.167 3.167 0 0 0-.668 1.34Zm12.789 1.344a2.687 2.687 0 0 1-.797 2.012c-.746.5-1.637.738-2.531.668h-3.332V18.64h3.199c.809-.051 1.61.187 2.262.668.523.425.82 1.07.8 1.746-.039.867-.55 1.64-1.332 2.011.934-.136 1.73.805 1.73 2.012Zm-5.594-2.683h2a4.712 4.712 0 0 0 1.465-.27 1.64 1.64 0 0 0 .531-1.07 1.53 1.53 0 0 0-.398-1.075 3.572 3.572 0 0 0-1.598-.402h-1.867Zm0 4.156h2.133c1.465 0 2.129-.535 2.129-1.61a1.465 1.465 0 0 0-.531-1.207 4.16 4.16 0 0 0-1.73-.402h-2Zm10.524-4.426c-.266 0-.532-.133-.665 0a1.64 1.64 0 0 0-1.464.941v4.692h-1.2v-6.57h1.2v.937a1.908 1.908 0 0 1 1.73-1.07h.531Zm3.464-1.207a3.116 3.116 0 0 1 2.266.941c.598.703.887 1.625.797 2.547a4.13 4.13 0 0 1-.797 2.547c-.566.656-1.406 1-2.266.942a3.116 3.116 0 0 1-2.265-.942 3.426 3.426 0 0 1-.797-2.547 4.13 4.13 0 0 1 .797-2.547 2.73 2.73 0 0 1 2.265-.941Zm0 5.902a1.64 1.64 0 0 0 1.332-.672 3.767 3.767 0 0 0 0-3.753 1.661 1.661 0 0 0-1.332-.672c-.523 0-1.02.25-1.332.672a3.085 3.085 0 0 0-.53 1.878 3.08 3.08 0 0 0 .53 1.875 1.64 1.64 0 0 0 1.332.672Zm12.391-5.765-1.867 6.57h-1.067l-1.464-4.828-1.465 4.828h-1.067l-1.996-6.57h1.332l1.2 4.96 1.464-4.96h1.067l1.465 4.96 1.199-4.96Zm3.328 6.703c-1.73 0-2.664-.668-2.797-2.145h1.2c0 .805.535 1.207 1.597 1.207a2.477 2.477 0 0 0 1.067-.27.96.96 0 0 0 .402-.804.736.736 0 0 0-.402-.668 6.53 6.53 0 0 0-1.465-.539 9.111 9.111 0 0 1-1.73-.668 1.468 1.468 0 0 1-.536-1.207 1.663 1.663 0 0 1 .668-1.344 2.945 2.945 0 0 1 1.73-.535c1.735 0 2.532.672 2.665 1.88h-1.2c0-.673-.53-.942-1.332-.942a1.121 1.121 0 0 0-.93.27.742.742 0 0 0-.402.671.701.701 0 0 0 .266.535c.45.258.953.395 1.469.403.605.14 1.187.367 1.73.671.422.305.63.829.531 1.34a2.178 2.178 0 0 1-.664 1.477 2.157 2.157 0 0 1-1.867.668Zm5.063-.133h-1.2v-6.57h1.2Zm0-7.777h-1.2V18.64h1.2Zm2.933 2.011a2.828 2.828 0 0 1 1.996-.941c1.465 0 2.133.805 2.133 2.414v4.293h-1.2v-4.293c.04-.418-.054-.84-.265-1.207a1.227 1.227 0 0 0-.933-.402c-.703.09-1.336.48-1.73 1.074v4.695h-1.2v-6.574h1.2Zm11.055 5.23c0 2.145-.93 3.216-2.797 3.216a3.703 3.703 0 0 1-1.996-.535 2.156 2.156 0 0 1-.668-1.473h1.2c0 .668.53 1.07 1.464 1.07.434.012.86-.133 1.2-.402a2.028 2.028 0 0 0 .398-1.742v-.403a2.32 2.32 0 0 1-1.864.938 2.399 2.399 0 0 1-2-.938 3.21 3.21 0 0 1-.664-2.414 4.11 4.11 0 0 1 .801-2.547 2.821 2.821 0 0 1 1.996-.941 2.514 2.514 0 0 1 1.73.672v-.535h1.2Zm-1.2-1.343v-3.082a2.277 2.277 0 0 0-1.73-.941 1.41 1.41 0 0 0-1.199.672 4.62 4.62 0 0 0 0 3.753 1.4 1.4 0 0 0 1.2.672c.683-.14 1.3-.52 1.73-1.074Zm0 0"/><path style="stroke:none;fill-rule:nonzero;fill:#66bb6a;fill-opacity:1" d="M.414 4.559v3.218c0 2.95 0 5.5.133 8.047.398 4.828 1.465 8.715 4.93 12.203a65.677 65.677 0 0 0 6.793 5.23V4.427c-4.93.133-9.993-.535-11.856.133Zm0 0"/><path style="stroke:none;fill-rule:nonzero;fill:#388e3c;fill-opacity:1" d="M24.39 4.559H12.403V33.39a65.677 65.677 0 0 0 6.793-5.23c5.196-5.231 5.196-10.727 5.196-19.044Zm0 0"/><g clip-path="url(#a)"><g clip-path="url(#b)"><path style="stroke:none;fill-rule:nonzero;fill:url(#c)" d="M-.52 4.559h25.977v2.144H-.52Zm0 0"/></g></g><path style="stroke:none;fill-rule:nonzero;fill:#fafafa;fill-opacity:1" d="M14.934 26.016c-.399.535-.934.937-1.332 1.476l-1.2 1.207c-.132-.137-.265-.137-.265-.27l-2.133-2.144a3.814 3.814 0 0 1 4.93-.27Zm0 0"/><path style="stroke:none;fill-rule:nonzero;fill:#fafafa;fill-opacity:1" d="m12.137 28.43.265.27 1.2-1.208a8.878 8.878 0 0 0-1.465.938Zm.398-5.903c-1.504 0-2.965.52-4.129 1.477.098.277.285.512.531.672l.27.402a5.162 5.162 0 0 1 3.461-1.207A5.084 5.084 0 0 1 16 25.078l.133-.27c.133-.269.398-.535.531-.804a7.082 7.082 0 0 0-4.129-1.477Zm0 0"/><path style="stroke:none;fill-rule:nonzero;fill:#fafafa;fill-opacity:1" d="M12.535 19.578a9.149 9.149 0 0 0-5.46 1.742c.116.47.296.922.53 1.344a8.306 8.306 0 0 1 4.93-1.61 8.023 8.023 0 0 1 4.664 1.473c.133-.402.399-.937.531-1.34a9.143 9.143 0 0 0-5.195-1.609Zm0 0"/><path style="stroke:none;fill-rule:nonzero;fill:#e0e0e0;fill-opacity:1" d="M24.39 4.559V2.145A2.672 2.672 0 0 0 22.13 0H2.543A2.553 2.553 0 0 0 .414 2.145v2.414Zm0 0"/><path style="stroke:none;fill-rule:nonzero;fill:#fafafa;fill-opacity:1" d="M16.266 13.41c0 2.223-1.79 4.024-3.996 4.024-2.207 0-3.997-1.801-3.997-4.024s1.79-4.023 3.997-4.023 3.996 1.8 3.996 4.023Zm0 0"/></svg>